<?xml version="1.0" encoding="UTF-8"?>
<svg id="Layer_1" xmlns="http://www.w3.org/2000/svg" version="1.1" viewBox="0 0 400.37 96.46">
  <!-- Generator: Adobe Illustrator 29.1.0, SVG Export Plug-In . SVG Version: 2.1.0 Build 142)  -->
  <defs>
    <style>
      .st0 {
        fill: #6f9;
      }
    </style>
  </defs>
  <path class="st0" d="M55.93,62.27l20.2.23c2.03.02,3.69,1.61,3.8,3.63s.11,4.28-.06,6.2c-.18,1.98-1.87,3.49-3.86,3.48l-48.58-.3c-2.14-.01-3.85-1.76-3.83-3.9l.56-47.62c.02-2.11,1.74-3.81,3.86-3.81h5.07c2.13,0,3.85,1.74,3.85,3.87l-.05,19.93c0,3.44,4.15,5.16,6.58,2.73l15.17-15.17c1.5-1.5,1.5-3.94,0-5.45l-.52-.52c-2.44-2.44-.69-6.61,2.76-6.58l15.22.13c2.1.02,3.8,1.72,3.82,3.82l.13,15.22c.03,3.45-4.14,5.2-6.58,2.76h0c-1.5-1.5-3.94-1.5-5.45,0l-14.78,14.78c-2.41,2.41-.73,6.54,2.68,6.58Z"/>
  <g>
    <path d="M110.67,73.15c-4.25,0-7.82-.95-10.72-2.85-2.9-1.9-4.94-4.48-6.13-7.75l7.23-4.23c1.67,4.37,4.96,6.56,9.86,6.56,2.37,0,4.11-.43,5.21-1.29,1.1-.86,1.65-1.94,1.65-3.25,0-1.51-.67-2.68-2.02-3.52-1.35-.84-3.76-1.75-7.23-2.73-1.92-.57-3.54-1.14-4.87-1.72-1.33-.57-2.66-1.34-3.98-2.3-1.33-.96-2.34-2.18-3.03-3.65-.7-1.47-1.04-3.19-1.04-5.15,0-3.88,1.38-6.97,4.14-9.28,2.76-2.31,6.07-3.46,9.96-3.46,3.47,0,6.52.85,9.16,2.54,2.63,1.7,4.69,4.05,6.16,7.08l-7.11,4.1c-1.72-3.68-4.45-5.51-8.21-5.51-1.76,0-3.13.4-4.14,1.19-1,.8-1.5,1.83-1.5,3.09,0,1.35.56,2.44,1.68,3.28,1.12.84,3.28,1.75,6.46,2.73,1.31.41,2.3.73,2.97.95.67.23,1.59.57,2.76,1.04,1.16.47,2.06.91,2.7,1.32.63.41,1.36.96,2.18,1.65.82.69,1.44,1.41,1.87,2.14.43.73.8,1.62,1.1,2.66.31,1.04.46,2.17.46,3.4,0,3.96-1.44,7.11-4.32,9.44-2.88,2.33-6.63,3.49-11.24,3.49Z"/>
    <path d="M155.52,41.66h7.9v30.63h-7.9v-3.61c-2.37,2.98-5.7,4.47-9.99,4.47s-7.59-1.56-10.51-4.69c-2.92-3.12-4.38-6.95-4.38-11.49s1.46-8.36,4.38-11.49c2.92-3.12,6.42-4.69,10.51-4.69,4.29,0,7.62,1.49,9.99,4.47v-3.61ZM140.93,63.19c1.59,1.61,3.61,2.42,6.07,2.42s4.48-.81,6.1-2.42c1.61-1.61,2.42-3.69,2.42-6.22s-.81-4.6-2.42-6.22c-1.61-1.61-3.65-2.42-6.1-2.42s-4.47.81-6.07,2.42-2.39,3.69-2.39,6.22.8,4.61,2.39,6.22Z"/>
    <path d="M179.41,64.2h16.36v8.09h-24.81V29.4h8.45v34.8Z"/>
    <path d="M204.1,37.98c-1.31,0-2.44-.48-3.4-1.44-.96-.96-1.44-2.09-1.44-3.4s.48-2.45,1.44-3.43c.96-.98,2.09-1.47,3.4-1.47s2.5.49,3.46,1.47c.96.98,1.44,2.12,1.44,3.43s-.48,2.44-1.44,3.4c-.96.96-2.11,1.44-3.46,1.44ZM200.18,72.29v-30.63h7.9v30.63h-7.9Z"/>
    <path d="M232.34,40.8c3.35,0,6.12,1.12,8.3,3.37,2.18,2.25,3.28,5.35,3.28,9.31v18.81h-7.9v-17.83c0-2.04-.55-3.6-1.65-4.69-1.1-1.08-2.57-1.62-4.41-1.62-2.04,0-3.68.63-4.9,1.9-1.23,1.27-1.84,3.17-1.84,5.7v16.54h-7.9v-30.63h7.9v3.43c1.92-2.86,4.96-4.29,9.13-4.29Z"/>
    <path d="M278.91,72.29h-9.19l-11.15-13.92v13.92h-7.9V29.4h7.9v25.79l10.54-13.53h9.44l-12.31,15.13,12.68,15.5Z"/>
    <path class="st0" d="M291.1,71.56c-1.02,1.02-2.25,1.53-3.68,1.53s-2.66-.51-3.68-1.53c-1.02-1.02-1.53-2.25-1.53-3.68s.51-2.66,1.53-3.68,2.25-1.53,3.68-1.53,2.65.51,3.68,1.53c1.02,1.02,1.53,2.25,1.53,3.68s-.51,2.66-1.53,3.68Z"/>
    <path d="M333.07,40.98c3.35,0,6.04,1.04,8.09,3.12,2.04,2.08,3.06,5,3.06,8.76v19.42h-3.06v-19.42c0-2.86-.75-5.06-2.24-6.62-1.49-1.55-3.46-2.33-5.91-2.33-2.74,0-4.95.94-6.65,2.82-1.7,1.88-2.54,4.7-2.54,8.46v17.09h-3.06v-19.42c0-2.86-.7-5.06-2.11-6.62s-3.32-2.33-5.73-2.33c-2.7,0-4.95.95-6.77,2.85-1.82,1.9-2.73,4.71-2.73,8.42v17.09h-3.06v-30.63h3.06v5.27c2.12-3.96,5.41-5.94,9.86-5.94,2.25,0,4.21.54,5.88,1.62,1.67,1.08,2.9,2.63,3.68,4.63,1.06-2.08,2.5-3.65,4.32-4.69,1.82-1.04,3.79-1.56,5.91-1.56Z"/>
    <path d="M366.64,40.98c4.49,0,8.14,1.59,10.94,4.78,2.8,3.19,4.2,6.96,4.2,11.33,0,.16-.01.41-.03.74-.02.33-.03.57-.03.74h-27.75c.37,3.43,1.75,6.2,4.14,8.3,2.39,2.1,5.34,3.16,8.85,3.16,2.45,0,4.6-.51,6.43-1.53,1.84-1.02,3.23-2.37,4.17-4.04l2.7,1.59c-1.27,2.12-3.06,3.81-5.39,5.05-2.33,1.25-4.98,1.87-7.96,1.87-4.7,0-8.56-1.5-11.58-4.5-3.02-3-4.53-6.83-4.53-11.49s1.48-8.38,4.44-11.43c2.96-3.04,6.77-4.56,11.43-4.56ZM366.64,43.92c-3.47,0-6.37,1.08-8.7,3.25-2.33,2.16-3.66,4.96-3.98,8.39h24.63c-.33-3.63-1.62-6.48-3.89-8.55-2.27-2.06-4.95-3.09-8.06-3.09Z"/>
  </g>
</svg>